<svg xmlns="http://www.w3.org/2000/svg" xmlns:xlink="http://www.w3.org/1999/xlink" viewBox="0 0 86.43 100.46"><defs><style>.cls-1{isolation:isolate;}.cls-2{mix-blend-mode:multiply;}.cls-3{fill:#fff;}.cls-4{fill:#fffefe;}.cls-5{fill:#fefdfd;}.cls-6{fill:#fefcfc;}.cls-7{fill:#fdfbfc;}.cls-8{fill:#fdfafb;}.cls-9{fill:#fcf9fa;}.cls-10{fill:#fcf8f9;}.cls-11{fill:#fbf7f8;}.cls-12{fill:#fbf6f7;}.cls-13{fill:#faf5f6;}.cls-14{fill:#faf4f6;}.cls-15{fill:#f9f3f5;}.cls-16{fill:#f9f2f4;}.cls-17{fill:#f8f1f3;}.cls-18{fill:#f8f0f2;}.cls-19{fill:#f7eff1;}.cls-20{fill:#f7eef0;}.cls-21{fill:#f7edef;}.cls-22{fill:#f6ecef;}.cls-23{fill:#f6ebee;}.cls-24{fill:#f5eaed;}.cls-25{fill:#f5e9ec;}.cls-26{fill:#f4e8eb;}.cls-27{fill:#f4e7ea;}.cls-28{fill:#f3e6e9;}.cls-29{fill:#f2e5e8;}.cls-30{fill:#f2e4e7;}.cls-31{fill:#f1e3e6;}.cls-32{fill:#f1e2e5;}.cls-33{fill:#f0e1e4;}.cls-34{fill:#f0e0e3;}.cls-35{fill:#efdfe3;}.cls-36{fill:#efdee2;}.cls-37{fill:#efdde1;}.cls-38{fill:#eedce0;}.cls-39{fill:#eedbdf;}.cls-40{fill:#eddade;}.cls-41{fill:#edd9dd;}.cls-42{fill:#ecd8dc;}.cls-43{fill:#ecd7dc;}.cls-44{fill:#ebd6db;}.cls-45{fill:#ebd5da;}.cls-46{fill:#ead4d9;}.cls-47{fill:#ead3d8;}.cls-48{fill:#e9d2d7;}.cls-49{fill:#e9d1d6;}.cls-50{fill:#e8d0d6;}.cls-51{fill:#e8cfd5;}.cls-52{fill:#e7ced4;}.cls-53{fill:#e7cdd3;}.cls-54{fill:none;stroke-miterlimit:10;stroke:url(#New_Gradient_Swatch_1);}.cls-55{fill:url(#New_Gradient_Swatch_1-2);}</style><linearGradient id="New_Gradient_Swatch_1" x1="45.14" y1="86.39" x2="41.29" y2="0.04" gradientTransform="translate(79.07 -6.28) rotate(80.92)" gradientUnits="userSpaceOnUse"><stop offset="0" stop-color="#00efb2"/><stop offset="0.57" stop-color="#7699ff"/><stop offset="0.98" stop-color="#df51ff"/></linearGradient><linearGradient id="New_Gradient_Swatch_1-2" x1="15.81" y1="109.06" x2="15.02" y2="61.19" gradientTransform="matrix(0.89, 0.23, 0.04, 1.13, 23.28, -53.47)" xlink:href="#New_Gradient_Swatch_1"/></defs><g class="cls-1"><g id="Capa_2" data-name="Capa 2"><g id="OBJECTS"><g class="cls-2"><path class="cls-3" d="M81.92,96.38c0,2.25-17.33,4.08-38.7,4.08S4.51,98.63,4.51,96.38s17.33-4.07,38.71-4.07S81.92,94.14,81.92,96.38Z"/><path class="cls-4" d="M81.26,96.38c0,2.22-17,4-38,4s-38-1.79-38-4,17-4,38.05-4S81.26,94.17,81.26,96.38Z"/><path class="cls-5" d="M80.61,96.38c0,2.18-16.74,4-37.39,4s-37.4-1.77-37.4-4,16.74-3.94,37.4-3.94S80.61,94.21,80.61,96.38Z"/><path class="cls-6" d="M80,96.38c0,2.14-16.45,3.88-36.73,3.88S6.48,98.52,6.48,96.38s16.45-3.87,36.74-3.87S80,94.24,80,96.38Z"/><path class="cls-7" d="M79.29,96.38c0,2.11-16.15,3.81-36.07,3.81S7.14,98.49,7.14,96.38s16.15-3.8,36.08-3.8S79.29,94.28,79.29,96.38Z"/><path class="cls-8" d="M78.64,96.38c0,2.07-15.86,3.75-35.42,3.75S7.79,98.45,7.79,96.38s15.86-3.74,35.43-3.74S78.64,94.32,78.64,96.38Z"/><path class="cls-9" d="M78,96.38c0,2-15.57,3.68-34.76,3.68S8.45,98.41,8.45,96.38,24,92.71,43.22,92.71,78,94.35,78,96.38Z"/><path class="cls-10" d="M77.32,96.38c0,2-15.27,3.61-34.1,3.61S9.11,98.38,9.11,96.38s15.27-3.61,34.11-3.61S77.32,94.39,77.32,96.38Z"/><path class="cls-11" d="M76.67,96.38c0,2-15,3.55-33.45,3.55S9.76,98.34,9.76,96.38s15-3.54,33.46-3.54S76.67,94.43,76.67,96.38Z"/><path class="cls-12" d="M76,96.38c0,1.92-14.68,3.48-32.79,3.48s-32.8-1.56-32.8-3.48,14.68-3.47,32.8-3.47S76,94.46,76,96.38Z"/><path class="cls-13" d="M75.35,96.38c0,1.89-14.39,3.42-32.13,3.42s-32.14-1.53-32.14-3.42S25.47,93,43.22,93,75.35,94.5,75.35,96.38Z"/><path class="cls-14" d="M74.7,96.38c0,1.85-14.1,3.35-31.48,3.35s-31.49-1.5-31.49-3.35S25.83,93,43.22,93,74.7,94.54,74.7,96.38Z"/><path class="cls-15" d="M74,96.38c0,1.81-13.8,3.28-30.82,3.28s-30.83-1.47-30.83-3.28,13.8-3.27,30.83-3.27S74,94.57,74,96.38Z"/><path class="cls-16" d="M73.38,96.38c0,1.78-13.5,3.22-30.16,3.22s-30.17-1.44-30.17-3.22,13.5-3.21,30.17-3.21S73.38,94.61,73.38,96.38Z"/><path class="cls-17" d="M72.73,96.38c0,1.74-13.22,3.15-29.51,3.15S13.7,98.12,13.7,96.38s13.22-3.14,29.52-3.14S72.73,94.65,72.73,96.38Z"/><path class="cls-18" d="M72.07,96.38c0,1.71-12.92,3.08-28.85,3.08s-28.86-1.37-28.86-3.08S27.28,93.3,43.22,93.3,72.07,94.68,72.07,96.38Z"/><path class="cls-19" d="M71.41,96.38c0,1.67-12.62,3-28.19,3S15,98.05,15,96.38s12.62-3,28.2-3S71.41,94.72,71.41,96.38Z"/><path class="cls-20" d="M70.76,96.38c0,1.63-12.34,3-27.54,3s-27.55-1.32-27.55-3S28,93.44,43.22,93.44,70.76,94.76,70.76,96.38Z"/><path class="cls-21" d="M70.1,96.38c0,1.6-12,2.88-26.88,2.88S16.33,98,16.33,96.38s12-2.88,26.89-2.88S70.1,94.79,70.1,96.38Z"/><path class="cls-22" d="M69.44,96.38c0,1.56-11.74,2.82-26.22,2.82S17,97.94,17,96.38s11.74-2.81,26.23-2.81S69.44,94.83,69.44,96.38Z"/><path class="cls-23" d="M68.79,96.38c0,1.52-11.45,2.75-25.57,2.75S17.64,97.9,17.64,96.38s11.45-2.74,25.58-2.74S68.79,94.87,68.79,96.38Z"/><path class="cls-24" d="M68.13,96.38c0,1.49-11.16,2.69-24.91,2.69S18.3,97.87,18.3,96.38,29.46,93.7,43.22,93.7,68.13,94.9,68.13,96.38Z"/><path class="cls-25" d="M67.47,96.38c0,1.45-10.86,2.62-24.25,2.62S19,97.83,19,96.38s10.86-2.61,24.26-2.61S67.47,94.94,67.47,96.38Z"/><path class="cls-26" d="M66.81,96.38c0,1.41-10.56,2.55-23.59,2.55s-23.61-1.14-23.61-2.55,10.57-2.54,23.61-2.54S66.81,95,66.81,96.38Z"/><path class="cls-27" d="M66.16,96.38c0,1.38-10.27,2.49-22.94,2.49s-22.95-1.11-22.95-2.49,10.27-2.48,23-2.48S66.16,95,66.16,96.38Z"/><path class="cls-28" d="M65.5,96.38c0,1.34-10,2.42-22.28,2.42s-22.29-1.08-22.29-2.42S30.91,94,43.22,94,65.5,95.05,65.5,96.38Z"/><path class="cls-28" d="M64.84,96.38c0,1.3-9.68,2.35-21.62,2.35s-21.63-1-21.63-2.35S31.27,94,43.22,94,64.84,95.09,64.84,96.38Z"/><path class="cls-29" d="M64.19,96.38c0,1.27-9.39,2.29-21,2.29s-21-1-21-2.29,9.39-2.28,21-2.28S64.19,95.12,64.19,96.38Z"/><path class="cls-30" d="M63.53,96.38c0,1.23-9.09,2.22-20.31,2.22s-20.32-1-20.32-2.22S32,94.17,43.22,94.17,63.53,95.16,63.53,96.38Z"/><path class="cls-31" d="M62.87,96.38c0,1.19-8.8,2.16-19.65,2.16s-19.66-1-19.66-2.16,8.8-2.15,19.66-2.15S62.87,95.2,62.87,96.38Z"/><path class="cls-32" d="M62.22,96.38c0,1.16-8.51,2.09-19,2.09s-19-.93-19-2.09,8.51-2.08,19-2.08S62.22,95.23,62.22,96.38Z"/><path class="cls-33" d="M61.56,96.38c0,1.12-8.21,2-18.34,2s-18.35-.9-18.35-2,8.21-2,18.35-2S61.56,95.27,61.56,96.38Z"/><path class="cls-34" d="M60.9,96.38c0,1.08-7.92,2-17.68,2s-17.69-.88-17.69-2,7.91-1.95,17.69-1.95S60.9,95.31,60.9,96.38Z"/><path class="cls-35" d="M60.25,96.38c0,1.05-7.63,1.89-17,1.89s-17-.84-17-1.89,7.63-1.88,17-1.88S60.25,95.34,60.25,96.38Z"/><path class="cls-36" d="M59.59,96.38c0,1-7.33,1.82-16.37,1.82s-16.38-.81-16.38-1.82,7.33-1.82,16.38-1.82S59.59,95.38,59.59,96.38Z"/><path class="cls-37" d="M58.93,96.38c0,1-7,1.76-15.71,1.76S27.5,97.35,27.5,96.38s7-1.75,15.72-1.75S58.93,95.42,58.93,96.38Z"/><path class="cls-38" d="M58.28,96.38c0,.94-6.75,1.69-15.06,1.69s-15.07-.75-15.07-1.69S34.9,94.7,43.22,94.7,58.28,95.45,58.28,96.38Z"/><path class="cls-39" d="M57.62,96.38c0,.9-6.45,1.63-14.4,1.63s-14.41-.73-14.41-1.63,6.45-1.62,14.41-1.62S57.62,95.49,57.62,96.38Z"/><path class="cls-40" d="M57,96.38c0,.86-6.15,1.56-13.74,1.56s-13.75-.7-13.75-1.56,6.15-1.55,13.75-1.55S57,95.53,57,96.38Z"/><path class="cls-41" d="M56.31,96.38c0,.83-5.86,1.49-13.09,1.49s-13.1-.66-13.1-1.49S36,94.9,43.22,94.9,56.31,95.56,56.31,96.38Z"/><path class="cls-42" d="M55.65,96.38c0,.79-5.57,1.43-12.43,1.43s-12.44-.64-12.44-1.43S36.35,95,43.22,95,55.65,95.6,55.65,96.38Z"/><path class="cls-43" d="M55,96.38c0,.75-5.27,1.36-11.77,1.36s-11.78-.61-11.78-1.36S36.71,95,43.22,95,55,95.64,55,96.38Z"/><path class="cls-44" d="M54.34,96.38c0,.72-5,1.29-11.12,1.29s-11.13-.57-11.13-1.29,5-1.29,11.13-1.29S54.34,95.67,54.34,96.38Z"/><path class="cls-45" d="M53.68,96.38c0,.68-4.69,1.23-10.46,1.23s-10.47-.55-10.47-1.23,4.68-1.22,10.47-1.22S53.68,95.71,53.68,96.38Z"/><path class="cls-46" d="M53,96.38c0,.64-4.39,1.16-9.8,1.16s-9.81-.52-9.81-1.16,4.39-1.15,9.81-1.15S53,95.75,53,96.38Z"/><path class="cls-47" d="M52.37,96.38c0,.61-4.1,1.09-9.15,1.09s-9.16-.48-9.16-1.09,4.1-1.09,9.16-1.09S52.37,95.78,52.37,96.38Z"/><path class="cls-48" d="M51.71,96.38c0,.57-3.8,1-8.49,1s-8.5-.46-8.5-1,3.8-1,8.5-1S51.71,95.82,51.71,96.38Z"/><path class="cls-49" d="M51.05,96.38c0,.53-3.51,1-7.83,1s-7.84-.43-7.84-1,3.51-.95,7.84-.95S51.05,95.86,51.05,96.38Z"/><path class="cls-50" d="M50.4,96.38c0,.5-3.22.9-7.18.9s-7.19-.4-7.19-.9,3.22-.89,7.19-.89S50.4,95.89,50.4,96.38Z"/><path class="cls-51" d="M49.74,96.38c0,.46-2.92.83-6.52.83s-6.53-.37-6.53-.83,2.92-.82,6.53-.82S49.74,95.93,49.74,96.38Z"/><path class="cls-52" d="M49.08,96.38c0,.42-2.62.76-5.86.76s-5.87-.34-5.87-.76,2.62-.75,5.87-.75S49.08,96,49.08,96.38Z"/><path class="cls-53" d="M48.43,96.38c0,.39-2.34.7-5.21.7S38,96.77,38,96.38s2.34-.69,5.22-.69S48.43,96,48.43,96.38Z"/></g><circle class="cls-54" cx="43.22" cy="43.22" r="42.72" transform="translate(-6.28 79.07) rotate(-80.92)"/><path class="cls-55" d="M33.26,23.47l.07,2.3.09,2.61.15,4.81.16,4.91.43,8.82a6.85,6.85,0,0,0-4.59-1.39c-4.31.28-7.67,4.5-7.51,9.42s3.77,8.66,8.07,8.37,7.67-4.5,7.51-9.42c0-.14,0-.27,0-.42h0L37,38.94l17.83,4.61.44,8.82A6.85,6.85,0,0,0,50.69,51c-4.31.29-7.67,4.5-7.51,9.42s3.77,8.66,8.07,8.38,7.67-4.51,7.51-9.42c0-.15,0-.28,0-.43h0L58.12,44.4,58,39.49l-.15-4.81-.09-2.61-.07-2.3ZM54.69,38.64,36.85,34l-.15-4.82,17.84,4.61Z"/></g></g></g></svg>